# xmcd
#
# Track frame offsets: 
#        150
#        13806
#        26420
#        38967
#        55854
#        71759
#        83409
#        100589
#        108198
#        116618
#        129177
#        149692
#        158241
#        174569
#        186734
#        204783
#        219781
#        231496
#        240943
#        264898
#        273544
#        289237
#        301385
#
# Disc length: 4237 seconds
#
# Revision: 0
# Processed by: cddbd v1.4b42PL1 Copyright (c) Steve Scherf et al.
# Submitted via: ExactAudioCopy v0.90a11
#
DISCID=3f108b17
DTITLE=Pavel BOBEK - The best of Pavel BOBEK
DYEAR=1900
DGENRE=
TTITLE0=Pojd stoupat jak dym
TTITLE1=Oh ruby nechtej mi lasku brat
TTITLE2=Sweet little sixteen
TTITLE3=Vincent
TTITLE4=Usvit
TTITLE5=Vis kdo ti smi z tvych vlasku copy splest
TTITLE6=Nedelni rano
TTITLE7=Oh boy
TTITLE8=Nadherna krasko
TTITLE9=Houston
TTITLE10=Muj rodny dum
TTITLE11=Rave on
TTITLE12=S tim blaznem si nic nezacinej
TTITLE13=Sealed with a kiss
TTITLE14=Lasko mne ubiva sil
TTITLE15=Ja ti zpivam
TTITLE16=Memphis tennessee
TTITLE17=Ma divka N
TTITLE18=Dalnicni hlidka
TTITLE19=Proc nemas me rada
TTITLE20=Pojd dal a zpivej
TTITLE21=Ved me dal cesto ma
TTITLE22=Muz na konci sveta
EXTD=
EXTT0=
EXTT1=
EXTT2=
EXTT3=
EXTT4=
EXTT5=
EXTT6=
EXTT7=
EXTT8=
EXTT9=
EXTT10=
EXTT11=
EXTT12=
EXTT13=
EXTT14=
EXTT15=
EXTT16=
EXTT17=
EXTT18=
EXTT19=
EXTT20=
EXTT21=
EXTT22=
PLAYORDER=
